<?xml version="1.0" encoding="UTF-8"?>
<svg width="83px" height="83px" viewBox="0 0 83 83" version="1.1" xmlns="http://www.w3.org/2000/svg" xmlns:xlink="http://www.w3.org/1999/xlink">
    <!-- Generator: sketchtool 58 (101010) - https://sketch.com -->
    <title>75BA084B-C06A-4162-882A-2451D76FB5AA</title>
    <desc>Created with sketchtool.</desc>
    <g id="Landing-Page" stroke="none" stroke-width="1" fill="none" fill-rule="evenodd">
        <g id="-g-Xcoins_Elements" transform="translate(-150.000000, -150.000000)" fill-rule="nonzero">
            <g id="bcash" transform="translate(150.000000, 150.000000)">
                <path d="M81.7590983,51.5386608 C76.2155778,73.7748796 53.695188,87.3012858 31.4562544,81.7584421 C9.22899408,76.2155983 -4.30295473,53.6966608 1.24315982,31.4656296 C6.78408624,9.22941082 29.3031791,-4.30088605 51.5343305,1.2419577 C73.77067,6.78480145 87.3013218,29.3063327 81.7578013,51.5386608 L81.7590983,51.5386608 Z" id="Path" fill="#CCD4E1"></path>
                <path d="M59.7741935,28.8008475 C57.9225806,23.5457627 52.8645161,22.9169492 46.9483871,23.8601695 L45.0967742,16.4042373 L40.5806452,17.5271186 L42.3870968,24.8033898 C41.2129032,25.1177966 39.9935484,25.4322034 38.8193548,25.7466102 L37.0129032,18.4254237 L32.4967742,19.5483051 L34.3483871,27.0042373 C33.4,27.2737288 32.4064516,27.5432203 31.5032258,27.7677966 L31.5032258,27.7228814 L25.2709677,29.2949153 L26.4903226,34.1457627 C26.4903226,34.1457627 29.7870968,33.2474576 29.7419355,33.3372881 C31.5483871,32.8881356 32.4064516,33.7864407 32.8129032,34.6847458 L34.9354839,43.2186441 C35.116129,43.1737288 35.2516129,43.1288136 35.4322581,43.1288136 L34.9354839,43.2635593 L37.8709677,55.2110169 C37.916129,55.7949153 37.8258065,56.8279661 36.5612903,57.1423729 C36.6516129,57.1872881 33.2645161,57.9508475 33.2645161,57.9508475 L33.716129,63.6101695 L39.5870968,62.1279661 C40.6709677,61.8584746 41.7548387,61.5889831 42.7935484,61.3644068 L44.6451613,68.9101695 L49.1612903,67.7872881 L47.3096774,60.2864407 C48.5741935,60.0169492 49.7483871,59.7025424 50.9225806,59.4330508 L52.7741935,66.8889831 L57.2903226,65.7661017 L55.4387097,58.220339 C62.8903226,55.8847458 67.7225806,52.6059322 66.5935484,45.2398305 C65.6903226,39.3110169 62.3483871,37.4245763 57.7870968,37.4694915 C60.0903226,35.4483051 61.1290323,32.6635593 59.7741935,28.8008475 L59.7741935,28.8008475 Z M57.4709677,46.5423729 C58.8709677,52.2016949 49.116129,53.9533898 46.0903226,54.7169492 L43.6064516,44.7008475 C46.6774194,43.9822034 56.0258065,40.7033898 57.4709677,46.5423729 L57.4709677,46.5423729 Z M51.916129,32.9779661 C53.1806452,38.0983051 45.0516129,39.5355932 42.5225806,40.1644068 L40.2645161,31.0915254 C42.7935484,30.4177966 50.5612903,27.5881356 51.916129,32.9779661 Z" id="path2_fill" fill="#FFFFFF"></path>
            </g>
        </g>
    </g>
</svg>