<?xml version="1.0" encoding="UTF-8"?>
<svg width="83px" height="83px" viewBox="0 0 83 83" version="1.1" xmlns="http://www.w3.org/2000/svg" xmlns:xlink="http://www.w3.org/1999/xlink">
    <!-- Generator: sketchtool 58 (101010) - https://sketch.com -->
    <title>E547C571-11AD-448E-8696-8987027DB68B</title>
    <desc>Created with sketchtool.</desc>
    <g id="Landing-Page" stroke="none" stroke-width="1" fill="none" fill-rule="evenodd">
        <g id="-g-Xcoins_Elements" transform="translate(-549.000000, -150.000000)" fill-rule="nonzero">
            <g id="bitcoin" transform="translate(549.000000, 150.000000)">
                <path d="M81.7590983,51.5386608 C76.2155778,73.7748796 53.695188,87.3012858 31.4562544,81.7584421 C9.22899408,76.2155983 -4.30295473,53.6966608 1.24315982,31.4656296 C6.78408624,9.22941082 29.3031791,-4.30088605 51.5343305,1.2419577 C73.77067,6.78480145 87.3013218,29.3063327 81.7578013,51.5386608 L81.7590983,51.5386608 Z" id="Path" fill="#CCD4E1"></path>
                <path d="M59.5974844,35.1273906 C60.4235937,29.6052969 56.219125,26.63675 50.4700781,24.6564219 L52.3349844,17.1760469 L47.7816562,16.0412812 L45.9660312,23.3245312 C44.7532384,23.0265414 43.5375767,22.7403508 42.3192187,22.466 L44.1478125,15.1347656 L39.5957812,14 L37.730875,21.4777812 C36.7400625,21.252125 35.7674062,21.0290625 34.8232812,20.7943281 L34.8284687,20.7709844 L28.549,19.2030625 L27.3377187,24.0663437 C27.3377187,24.0663437 30.7160781,24.8405781 30.64475,24.8885625 C32.4889062,25.3489531 32.8222031,26.5693125 32.7664375,27.5367812 L30.6421562,36.0585469 C30.76925,36.0909687 30.9339531,36.1389531 31.1155156,36.2102812 L30.634375,36.0909687 L27.65675,48.0287031 C27.4310937,48.5889531 26.8591719,49.4293281 25.5687812,49.1102969 C25.6154687,49.1764375 22.2604531,48.2841875 22.2604531,48.2841875 L20,53.497625 L25.9254219,54.9760625 C27.0277656,55.251 28.1080625,55.5402031 29.1715,55.8125469 L27.2871406,63.3785156 L31.8352812,64.5132812 L33.7001875,57.0264219 C34.9425937,57.3649063 36.1486875,57.6748594 37.3288437,57.96925 L35.469125,65.4197969 L40.0211562,66.5545625 L41.9068125,59.0028594 C49.6712031,60.4722187 55.5097344,59.8795469 57.9673125,52.8582656 C59.9476406,47.2038906 57.86875,43.94225 53.7835937,41.8140781 C56.758625,41.1267344 58.999625,39.16975 59.5974844,35.1273906 L59.5974844,35.1273906 Z M49.1926562,49.7146406 C47.7855469,55.3690156 38.2651875,52.3135781 35.178625,51.5458281 L37.679,41.5222812 C40.7655625,42.2939219 50.6633125,43.8190469 49.1926562,49.7146406 Z M50.6010625,35.0469844 C49.3171562,40.1890937 41.39325,37.5758906 38.8228437,36.9352344 L41.0897812,27.8441406 C43.6601875,28.4847969 51.9381406,29.6805156 50.6010625,35.0456875 L50.6010625,35.0469844 Z" id="Shape" fill="#FFFFFF"></path>
            </g>
        </g>
    </g>
</svg>