<svg xmlns="http://www.w3.org/2000/svg" width="456" height="452" viewBox="0 0 456 452">
    <g fill="none" fill-rule="evenodd">
        <g transform="translate(-.498)">
            <path fill="#3A4E6F" fill-rule="nonzero" d="M40.945 155.225l1.855.748C33.576 178.84 28.498 203.828 28.498 230c0 109.352 88.647 198 198 198 54.675 0 104.175-22.161 140.006-57.992l1.414 1.414C331.725 407.615 281.726 430 226.498 430c-110.457 0-200-89.543-200-200 0-26.437 5.129-51.675 14.447-74.775zM426.498 230l-.001.122v-.245.123zm-200-198v-2c64.294 0 121.502 30.338 158.09 77.48l-1.58 1.225c-35.6-45.868-90.919-75.668-153.236-76.678L226.498 32v-2z"/>
            <path fill="#3A4E6F" fill-rule="nonzero" d="M226.498 430c110.457 0 200-89.543 200-200s-89.543-200-200-200-200 89.543-200 200 89.543 200 200 200zm0-2c-109.353 0-198-88.648-198-198s88.647-198 198-198c109.352 0 198 88.648 198 198s-88.648 198-198 198z" opacity=".05"/>
            <path fill="#009CDE" fill-rule="nonzero" d="M21.794 330.518c28.26 57.443 79.989 101.26 142.675 118.943l-.543 1.925C100.691 433.55 48.51 389.35 20 331.402l1.794-.884zM444.651 156.94c7.684 22.954 11.847 47.52 11.847 73.06 0 65.41-27.305 124.443-71.139 166.323l-1.38-1.448C427.431 353.36 454.498 294.84 454.498 230c0-25.319-4.127-49.674-11.745-72.429l1.898-.63zM226.498 0v2C143.768 2 71.33 46.062 31.37 111.998l-1.714-1.031C69.966 44.45 143.041 0 226.498 0z"/>
            <circle cx="388.498" cy="103" r="28" fill="#FFF"/>
            <circle cx="28.498" cy="192" r="28" fill="#FFF"/>
            <circle cx="286.498" cy="415" r="28" fill="#FFF"/>
        </g>
        <path fill="#E7EBF2" fill-rule="nonzero" d="M115 164h168v24H115z"/>
        <path fill="#3A4E6F" fill-rule="nonzero" d="M282 164c0-6.075-4.925-11-11-11H127c-6.075 0-11 4.925-11 11v82c0 6.075 4.925 11 11 11h27a2 2 0 0 1 .15 3.995L154 261h-27c-8.284 0-15-6.716-15-15v-82c0-8.284 6.716-15 15-15h144c8.284 0 15 6.716 15 15v23a2 2 0 0 1-4 0v-23z"/>
        <path fill="#3A4E6F" fill-rule="nonzero" d="M181 199h144c8.284 0 15 6.716 15 15v82c0 8.284-6.716 15-15 15H181c-8.284 0-15-6.716-15-15v-82c0-8.284 6.716-15 15-15zm0 4c-6.075 0-11 4.925-11 11v82c0 6.075 4.925 11 11 11h144c6.075 0 11-4.925 11-11v-82c0-6.075-4.925-11-11-11H181z"/>
        <path fill="#009CDE" fill-rule="nonzero" d="M251.822 227.302l1.763 5.427a1.781 1.781 0 0 0 1.694 1.231h5.706c1.726 0 2.443 2.208 1.047 3.223l-4.616 3.354a1.782 1.782 0 0 0-.647 1.992l1.763 5.427c.533 1.641-1.345 3.006-2.741 1.992l-4.617-3.354a1.78 1.78 0 0 0-2.094 0l-4.616 3.354c-1.396 1.014-3.275-.35-2.741-1.992l1.763-5.427a1.783 1.783 0 0 0-.647-1.992l-4.616-3.354c-1.396-1.014-.679-3.223 1.047-3.223h5.706a1.78 1.78 0 0 0 1.694-1.231l1.763-5.427c.534-1.641 2.856-1.641 3.389 0zM282.27 227.302l1.763 5.427a1.782 1.782 0 0 0 1.694 1.231h5.706c1.726 0 2.443 2.208 1.047 3.223l-4.617 3.354a1.782 1.782 0 0 0-.647 1.992l1.763 5.427c.533 1.641-1.345 3.006-2.741 1.992l-4.616-3.354a1.78 1.78 0 0 0-2.094 0l-4.617 3.354c-1.396 1.014-3.275-.35-2.741-1.992l1.763-5.427a1.783 1.783 0 0 0-.647-1.992l-4.616-3.354c-1.396-1.014-.679-3.223 1.047-3.223h5.706a1.78 1.78 0 0 0 1.694-1.231l1.763-5.427c.535-1.641 2.856-1.641 3.39 0zM312.717 227.302l1.763 5.427a1.781 1.781 0 0 0 1.694 1.231h5.706c1.726 0 2.443 2.208 1.047 3.223l-4.616 3.354a1.782 1.782 0 0 0-.647 1.992l1.763 5.427c.533 1.641-1.345 3.006-2.741 1.992l-4.616-3.354a1.78 1.78 0 0 0-2.094 0l-4.616 3.354c-1.396 1.014-3.275-.35-2.741-1.992l1.763-5.427a1.783 1.783 0 0 0-.647-1.992l-4.616-3.354c-1.396-1.014-.679-3.223 1.047-3.223h5.706a1.78 1.78 0 0 0 1.694-1.231l1.763-5.427c.533-1.641 2.855-1.641 3.388 0z"/>
        <path fill="#3A4E6F" fill-rule="nonzero" d="M187 222h14a8 8 0 0 1 8 8v14a8 8 0 0 1-8 8h-14a8 8 0 0 1-8-8v-14a8 8 0 0 1 8-8zm0 4a4 4 0 0 0-4 4v14a4 4 0 0 0 4 4h14a4 4 0 0 0 4-4v-14a4 4 0 0 0-4-4h-14z"/>
        <path fill="#3A4E6F" d="M183 271h24a2 2 0 0 1 0 4h-24a2 2 0 0 1 0-4zM128 207h24a2 2 0 1 1 0 4h-24a2 2 0 1 1 0-4zM128 221h24a2 2 0 1 1 0 4h-24a2 2 0 1 1 0-4zM183 285h58a2 2 0 0 1 0 4h-58a2 2 0 0 1 0-4zM217 271h24a2 2 0 0 1 0 4h-24a2 2 0 0 1 0-4zM251 271h24a2 2 0 0 1 0 4h-24a2 2 0 0 1 0-4zM285 271h24a2 2 0 0 1 0 4h-24a2 2 0 0 1 0-4z"/>
        <path fill="#E7EBF2" d="M192 233h4a3 3 0 0 1 3 3v4a3 3 0 0 1-3 3h-4a3 3 0 0 1-3-3v-4a3 3 0 0 1 3-3z"/>
        <g transform="translate(0 75)">
            <circle cx="382" cy="116" r="3" fill="#009CDE"/>
            <circle cx="89" cy="227" r="3" fill="#009CDE"/>
            <path fill="#3A4E6F" d="M145 34a1 1 0 0 1 1 1v4a1 1 0 1 1-2 0v-4a1 1 0 0 1 1-1zm-4-4a1 1 0 1 1 0 2h-4a1 1 0 1 1 0-2h4zm12 0a1 1 0 1 1 0 2h-4a1 1 0 1 1 0-2h4zm-8-8a1 1 0 0 1 1 1v4a1 1 0 1 1-2 0v-4a1 1 0 0 1 1-1zM324 277a1 1 0 0 1 1 1v4a1 1 0 1 1-2 0v-4a1 1 0 0 1 1-1zm-4-4a1 1 0 1 1 0 2h-4a1 1 0 1 1 0-2h4zm12 0a1 1 0 1 1 0 2h-4a1 1 0 1 1 0-2h4zm-8-8a1 1 0 0 1 1 1v4a1 1 0 1 1-2 0v-4a1 1 0 0 1 1-1z" opacity=".3"/>
            <path fill="#3A4E6F" d="M268 29h22a1 1 0 1 1 0 2h-22a1 1 0 1 1 0-2zM298 29h6a1 1 0 1 1 0 2h-6a1 1 0 1 1 0-2zM138 286h22a1 1 0 1 1 0 2h-22a1 1 0 1 1 0-2zM168 286h6a1 1 0 1 1 0 2h-6a1 1 0 1 1 0-2z"/>
            <path fill="#3A4E6F" fill-opacity=".3" fill-rule="nonzero" d="M28 145c15.464 0 28-12.536 28-28S43.464 89 28 89 0 101.536 0 117s12.536 28 28 28zm0-2c-14.36 0-26-11.64-26-26s11.64-26 26-26 26 11.64 26 26-11.64 26-26 26z"/>
            <path fill="#3A4E6F" fill-rule="nonzero" d="M29.41 98.57l1.175 4.786c4.034-.265 6.872 1.028 8.097 4.544.569 1.64.617 3.165.19 4.518 2.15.898 3.553 2.842 4.007 5.856.699 4.612-1.432 7.454-6.034 9.37l-.297.121 1.159 4.775-11.5 2.891-1.12-4.618-5.805 1.482-.595-7.54 1.685-.384 1.036-.24-1.903-7.834-.72-2.938-1.54.388-1.956.539-.011-.045-.308.078.218-.438-1.608-6.471 5.475-1.397-1.117-4.551 4.873-1.226-.002-.006 6.601-1.66zM27.947 101l-2.721.684 1.088 4.435-2.15.575-1.088-4.462-2.722.684 1.116 4.544c-.428.123-.872.247-1.297.358l-.417.108v-.028l-3.756.958.735 2.957 1.153-.31c.433-.113.818-.207.806-.183 1.028-.259 1.547.215 1.807.73l.044.091 1.279 5.201.043-.009h.01v.006l-.053.03 1.769 7.282c.018.237-.245.63-.79 1.177.014.007-.067.033-.241.079l-.474.118-1.271.296.272 3.449 3.538-.903c.436-.11.871-.22 1.298-.32l.634-.146L27.675 133l2.722-.684-1.116-4.572c.571-.123 1.112-.262 1.645-.392l.532-.128 1.116 4.544 2.721-.684-1.115-4.599.53-.174c4.187-1.413 6.845-3.427 6.192-7.737-.373-2.472-1.433-3.791-2.946-4.369L36.5 113.5l.5-2 1.871.918a7.433 7.433 0 0 0-1.878-.496l-.065-.007.039-.113c.267-.852.264-1.843-.093-2.997l-.082-.25c-1.09-3.126-4.02-3.566-7.475-3.05l-.254.04L27.947 101zm6.05 9.619l.055.242c.386 1.91-.32 3.357-1.729 4.43 2.528.046 4.41 1.091 5.024 3.601l.051.229c.634 3.089-1.5 5.023-4.986 6.241-.497.174-1.007.328-1.561.477l-.424.11c-.29.074-.987.241-1.271.31l-2.072.528-2.457-10.023.023-.007-2.024-8.228 1.889-.509 1.295-.37c.844-.227 1.598-.384 2.345-.463 2.861-.305 5.151.65 5.843 3.432zm-12.54 13.715l-.038.036-.037.04-.038.05.116-.118-.002-.008zm6.072-6.211l-.48.123 1.497 6.104 1.46-.357c2.41-.619 6.076-1.852 5.398-4.625l-.054-.196c-.949-3.035-5.672-1.623-7.82-1.05zm-1.501-8.457l-.993.285 1.361 5.53 1.183-.287c2.01-.514 5.094-1.57 4.478-4.093-.68-2.737-4.045-1.996-6.03-1.435zm10.9 2.249l-.022.068c-.16.436-.153.414.022-.068z"/>
            <path fill="#3A4E6F" fill-opacity=".3" fill-rule="nonzero" d="M388 56c15.464 0 28-12.536 28-28S403.464 0 388 0s-28 12.536-28 28 12.536 28 28 28zm0-2c-14.36 0-26-11.64-26-26s11.64-26 26-26 26 11.64 26 26-11.64 26-26 26z"/>
            <path fill="#3A4E6F" fill-rule="nonzero" d="M388.44 34.282l1.05-4.12 3.546-1.348 1.085-4.246-.471-1.338-2.648 1.007L393.36 15h-9.195l-3.352 13.112-2.746 1.044-1.511 5.926 2.742-1.043-1.78 6.961h21.041l1.733-6.718H388.44zm-1.287 2h10.556l-.7 2.718h-16.916l2.097-8.2-2.745 1.043.303-1.186 2.745-1.044L385.717 17h5.068l-2.673 10.476 3.546-1.35-.303 1.188-3.546 1.348-1.625 6.373.969.247v1z"/>
            <path fill="#3A4E6F" fill-opacity=".3" fill-rule="nonzero" d="M286 368c15.464 0 28-12.536 28-28s-12.536-28-28-28-28 12.536-28 28 12.536 28 28 28zm0-2c-14.36 0-26-11.64-26-26s11.64-26 26-26 26 11.64 26 26-11.64 26-26 26z"/>
            <path fill="#3A4E6F" fill-rule="nonzero" d="M297.674 339.285L286 360.04l-11.673-20.755 11.673 6.8 11.675-6.8zm-5.348 5.43l-6.327 3.684-6.325-3.684L286 355.96l6.327-11.245zm-6.327-25.79l10.333 18.78-10.333 6.475-10.33-6.475 10.33-18.78zm0 4.15l-7.668 13.938L286 341.82l7.67-4.807-7.67-13.938z"/>
        </g>
    </g>
</svg>
