<svg xmlns="http://www.w3.org/2000/svg" width="456" height="452" viewBox="0 0 456 452">
    <g fill="none" fill-rule="evenodd">
        <g fill-rule="nonzero">
            <path fill="#3A4E6F" d="M40.445 155.225l1.855.748C33.076 178.84 27.998 203.828 27.998 230c0 109.352 88.647 198 198 198 54.675 0 104.175-22.161 140.006-57.992l1.414 1.414C331.225 407.615 281.226 430 225.998 430c-110.457 0-200-89.543-200-200 0-26.437 5.129-51.675 14.447-74.775zM425.998 230l-.001.122v-.245.123zm-200-198v-2c64.294 0 121.502 30.338 158.09 77.48l-1.58 1.225c-35.6-45.868-90.919-75.668-153.236-76.678L225.998 32v-2z"/>
            <path fill="#3A4E6F" d="M225.998 430c110.457 0 200-89.543 200-200s-89.543-200-200-200-200 89.543-200 200 89.543 200 200 200zm0-2c-109.353 0-198-88.648-198-198s88.647-198 198-198c109.352 0 198 88.648 198 198s-88.648 198-198 198z" opacity=".05"/>
            <path fill="#009CDE" d="M21.294 330.518c28.26 57.443 79.989 101.26 142.675 118.943l-.543 1.925C100.191 433.55 48.01 389.35 19.5 331.402l1.794-.884zM444.151 156.94c7.684 22.954 11.847 47.52 11.847 73.06 0 65.41-27.305 124.443-71.139 166.323l-1.38-1.448C426.931 353.36 453.998 294.84 453.998 230c0-25.319-4.127-49.674-11.745-72.429l1.898-.63zM225.998 0v2C143.268 2 70.83 46.062 30.87 111.998l-1.714-1.031C69.466 44.45 142.541 0 225.998 0z"/>
        </g>
        <g transform="translate(146 138)">
            <path fill="#E7EBF2" fill-rule="nonzero" d="M0 143c0 11.046 8.954 20 20 20h120c11.046 0 20-8.954 20-20v15c0 11.046-8.954 20-20 20H20c-11.046 0-20-8.954-20-20z"/>
            <path fill="#3A4E6F" fill-rule="nonzero" d="M20 30h120c11.046 0 20 8.954 20 20v108c0 11.046-8.954 20-20 20H20c-11.046 0-20-8.954-20-20V50c0-11.046 8.954-20 20-20zm0 4c-8.837 0-16 7.163-16 16v108c0 8.837 7.163 16 16 16h120c8.837 0 16-7.163 16-16V50c0-8.837-7.163-16-16-16H20z"/>
            <path fill="#3A4E6F" fill-rule="nonzero" d="M4.035 49C4.548 56.264 10.604 62 18 62h69v4H18C8.394 66 .545 58.475.027 48.999h4.008zm155.938-.001l-4.008.001 4.008-.001z"/>
            <path fill="#3A4E6F" fill-rule="nonzero" d="M155.965 79c-.513-7.265-6.569-13-13.965-13H73v-4h69c9.606 0 17.455 7.525 17.973 17.001h-4.008zM.027 79.002L4.036 79l-4.008.001zM106 94h54v52h-54c-14.36 0-26-11.64-26-26s11.64-26 26-26zm50 4h-50c-12.15 0-22 9.85-22 22s9.85 22 22 22h50V98z"/>
            <path fill="#3A4E6F" fill-rule="nonzero" d="M106 131c6.075 0 11-4.925 11-11s-4.925-11-11-11-11 4.925-11 11 4.925 11 11 11zm0-4a7 7 0 1 1 0-14 7 7 0 0 1 0 14z"/>
            <rect width="120" height="4" x="20" y="46" fill="#3A4E6F" rx="2"/>
            <path fill="#009CDE" d="M80 0c15.464 0 28 12.536 28 28 0 8.925-4.175 16.874-10.68 22.001H62.68C56.174 44.874 52 36.925 52 28 52 12.536 64.536 0 80 0z"/>
            <path fill="#FFF" fill-rule="nonzero" d="M80.063 15.544L78.947 11l-2.721.684 1.088 4.435c-.707.192-1.442.383-2.15.575l-1.088-4.462-2.722.684 1.116 4.544c-.571.164-1.17.329-1.714.466v-.028L67 18.856l.735 2.957s1.986-.548 1.96-.493c1.088-.274 1.605.274 1.85.821l1.279 5.201c.073-.018.073-.009 0 .028l1.769 7.281c.018.237-.245.63-.79 1.177.037.018-.625.183-1.986.493l.272 3.449 3.538-.903c.653-.165 1.306-.329 1.932-.466L78.675 43l2.722-.684-1.116-4.572c.762-.164 1.47-.356 2.177-.52l1.116 4.544 2.721-.684-1.115-4.599c4.49-1.423 7.402-3.422 6.722-7.911-.545-3.613-2.559-4.763-5.307-4.736 1.388-1.231 2.014-2.929 1.197-5.283-1.116-3.203-4.164-3.586-7.729-3.01zm6.341 13.824c.844 3.449-5.035 4.517-6.858 4.982l-1.497-6.104c1.85-.438 7.484-2.437 8.355 1.122zM83.057 21.1c.762 3.12-4.137 3.997-5.66 4.38l-1.362-5.53c1.524-.41 6.205-2.135 7.022 1.15z"/>
        </g>
        <g transform="translate(0 75)">
            <circle cx="382" cy="116" r="3" fill="#009CDE"/>
            <circle cx="89" cy="227" r="3" fill="#009CDE"/>
            <path fill="#3A4E6F" d="M306 50a1 1 0 0 1 1 1v4a1 1 0 1 1-2 0v-4a1 1 0 0 1 1-1zm-4-4a1 1 0 1 1 0 2h-4a1 1 0 1 1 0-2h4zm12 0a1 1 0 1 1 0 2h-4a1 1 0 1 1 0-2h4zm-8-8a1 1 0 0 1 1 1v4a1 1 0 1 1-2 0v-4a1 1 0 0 1 1-1zM147 284a1 1 0 0 1 1 1v4a1 1 0 1 1-2 0v-4a1 1 0 0 1 1-1zm-4-4a1 1 0 1 1 0 2h-4a1 1 0 1 1 0-2h4zm12 0a1 1 0 1 1 0 2h-4a1 1 0 1 1 0-2h4zm-8-8a1 1 0 0 1 1 1v4a1 1 0 1 1-2 0v-4a1 1 0 0 1 1-1z" opacity=".3"/>
            <rect width="24" height="2" x="122" y="39" fill="#3A4E6F" rx="1"/>
            <rect width="8" height="2" x="152" y="39" fill="#3A4E6F" rx="1"/>
            <rect width="24" height="2" x="306" y="274" fill="#3A4E6F" rx="1"/>
            <rect width="8" height="2" x="336" y="274" fill="#3A4E6F" rx="1"/>
            <circle cx="28" cy="117" r="28" fill="#FFF"/>
            <circle cx="286" cy="340" r="28" fill="#FFF"/>
            <circle cx="388" cy="28" r="28" fill="#FFF"/>
            <path fill="#3A4E6F" fill-opacity=".3" fill-rule="nonzero" d="M28 145c15.464 0 28-12.536 28-28S43.464 89 28 89 0 101.536 0 117s12.536 28 28 28zm0-2c-14.36 0-26-11.64-26-26s11.64-26 26-26 26 11.64 26 26-11.64 26-26 26zM388 56c15.464 0 28-12.536 28-28S403.464 0 388 0s-28 12.536-28 28 12.536 28 28 28zm0-2c-14.36 0-26-11.64-26-26s11.64-26 26-26 26 11.64 26 26-11.64 26-26 26zM286 368c15.464 0 28-12.536 28-28s-12.536-28-28-28-28 12.536-28 28 12.536 28 28 28zm0-2c-14.36 0-26-11.64-26-26s11.64-26 26-26 26 11.64 26 26-11.64 26-26 26z"/>
            <path fill="#3A4E6F" fill-rule="nonzero" d="M31.536 112.251v-7.085c0-.644-.425-1.166-.95-1.166h-6.172c-.525 0-.95.522-.95 1.166v7.085c0 .644-.425 1.166-.95 1.166h-2.563c-.784 0-1.23 1.101-.757 1.869l7.549 10.251c.38.617 1.135.617 1.515 0l7.548-10.251c.473-.768.027-1.87-.758-1.87h-2.562c-.524 0-.95-.52-.95-1.165zm1.69 3.166l-5.726 7.776-5.726-7.776h.74c1.73 0 2.95-1.498 2.95-3.166V106h4.072v6.251c0 1.669 1.22 3.166 2.95 3.166h.74zM289.536 340.749v7.085c0 .644-.425 1.166-.95 1.166h-6.172c-.525 0-.95-.522-.95-1.166v-7.085c0-.644-.425-1.166-.95-1.166h-2.563c-.784 0-1.23-1.101-.757-1.869l7.549-10.251c.38-.617 1.135-.617 1.515 0l7.548 10.251c.473.768.027 1.87-.758 1.87h-2.562c-.524 0-.95.52-.95 1.165zm-4.036-10.942l-5.726 7.776h.74c1.73 0 2.95 1.498 2.95 3.166V347h4.072v-6.251c0-1.669 1.22-3.166 2.95-3.166h.74l-5.726-7.776z"/>
            <path fill="#3A4E6F" d="M275 353h21a1 1 0 1 1 0 2h-21a1 1 0 1 1 0-2z"/>
            <path fill="#3A4E6F" fill-rule="nonzero" d="M385.707 28.293a1 1 0 0 0-1.414 1.414L388 33.414l6.707-6.707a1 1 0 0 0-1.414-1.414L388 30.586l-2.293-2.293z"/>
            <rect width="23" height="2" x="16" y="130" fill="#3A4E6F" rx="1"/>
            <path fill="#3A4E6F" fill-rule="nonzero" d="M387.774 15.256a1.173 1.173 0 0 1 1.463 0c2.813 2.49 6.226 3.65 10.652 3.65.6 0 1.05.443 1.05.955 0 .648.038 1.365.038 2.08l.02 1.359c.063 6.618-.532 14.965-12.173 18.632-.375.023-.6.023-.675 0-10.97-3.456-12.13-11.068-12.149-17.473l.005-.928.029-1.59c.038-.715.038-1.398.038-2.08 0-.546.487-.955 1.05-.955 4.463 0 7.839-1.16 10.652-3.65zm.116 1.962c-2.363 2.126-5.199 3.116-8.948 3.116-.473 0-.882.349-.882.815 0 .582 0 1.164-.032 1.776l-.024 1.356-.004.792c.015 5.466.99 11.963 10.205 14.912.063.02.252.02.567 0 9.778-3.13 10.278-10.253 10.225-15.902l-.017-1.158c0-.612-.031-1.223-.031-1.776 0-.437-.378-.815-.882-.815-3.718 0-6.585-.99-8.948-3.116a.974.974 0 0 0-1.229 0z"/>
        </g>
    </g>
</svg>
