<?xml version="1.0" encoding="UTF-8"?>
<svg width="83px" height="83px" viewBox="0 0 83 83" version="1.1" xmlns="http://www.w3.org/2000/svg" xmlns:xlink="http://www.w3.org/1999/xlink">
    <!-- Generator: sketchtool 58 (101010) - https://sketch.com -->
    <title>BBA81FFA-A3DB-4280-A2B4-8A7440209854</title>
    <desc>Created with sketchtool.</desc>
    <g id="Landing-Page" stroke="none" stroke-width="1" fill="none" fill-rule="evenodd">
        <g id="-g-Xcoins_Elements" transform="translate(-416.000000, -150.000000)" fill-rule="nonzero">
            <g id="ethereum" transform="translate(416.000000, 150.000000)">
                <path d="M81.7590983,51.5386608 C76.2155778,73.7748796 53.695188,87.3012858 31.4562544,81.7584421 C9.22899408,76.2155983 -4.30295473,53.6966608 1.24315982,31.4656296 C6.78408624,9.22941082 29.3031791,-4.30088605 51.5343305,1.2419577 C73.77067,6.78480145 87.3013218,29.3063327 81.7578013,51.5386608 L81.7590983,51.5386608 Z" id="Path" fill="#CCD4E1"></path>
                <g id="Group-2" transform="translate(24.000000, 14.000000)" fill="#FFFFFF">
                    <g id="Group" opacity="0.6" transform="translate(0.000000, 20.400000)">
                        <polygon id="Path" points="17 0.0266666667 0.04 7.74 17 17.76 33.9533333 7.74"></polygon>
                    </g>
                    <g id="Group" opacity="0.45">
                        <polygon id="Path" points="0.04 28.14 17 38.16 17 0"></polygon>
                    </g>
                    <g id="Group" opacity="0.8" transform="translate(17.000000, 0.000000)">
                        <polygon id="Path" points="0 0 0 38.16 16.9533333 28.14"></polygon>
                    </g>
                    <g id="Group" opacity="0.45" transform="translate(0.000000, 31.333333)">
                        <polygon id="Path" points="0.04 0.02 17 23.9133333 17 10.04"></polygon>
                    </g>
                    <g id="Group" opacity="0.8" transform="translate(17.000000, 31.333333)">
                        <polygon id="Path" points="0 10.04 0 23.9133333 16.9666667 0.02"></polygon>
                    </g>
                </g>
            </g>
        </g>
    </g>
</svg>