<svg xmlns="http://www.w3.org/2000/svg" width="457" height="452" viewBox="0 0 457 452">
    <g fill="none" fill-rule="evenodd">
        <g fill-rule="nonzero">
            <path fill="#3A4E6F" d="M40.945 155.225l1.855.748C33.576 178.84 28.498 203.828 28.498 230c0 109.352 88.647 198 198 198 54.675 0 104.175-22.161 140.006-57.992l1.414 1.414C331.725 407.615 281.726 430 226.498 430c-110.457 0-200-89.543-200-200 0-26.437 5.129-51.675 14.447-74.775zM426.498 230l-.001.122v-.245.123zm-200-198v-2c64.294 0 121.502 30.338 158.09 77.48l-1.58 1.225c-35.6-45.868-90.919-75.668-153.236-76.678L226.498 32v-2z"/>
            <path fill="#3A4E6F" d="M226.498 430c110.457 0 200-89.543 200-200s-89.543-200-200-200-200 89.543-200 200 89.543 200 200 200zm0-2c-109.353 0-198-88.648-198-198s88.647-198 198-198c109.352 0 198 88.648 198 198s-88.648 198-198 198z" opacity=".05"/>
            <path fill="#009CDE" d="M21.794 330.518c28.26 57.443 79.989 101.26 142.675 118.943l-.543 1.925C100.691 433.55 48.51 389.35 20 331.402l1.794-.884zM444.651 156.94c7.684 22.954 11.847 47.52 11.847 73.06 0 65.41-27.305 124.443-71.139 166.323l-1.38-1.448C427.431 353.36 454.498 294.84 454.498 230c0-25.319-4.127-49.674-11.745-72.429l1.898-.63zM226.498 0v2C143.768 2 71.33 46.062 31.37 111.998l-1.714-1.031C69.966 44.45 143.041 0 226.498 0z"/>
        </g>
        <g transform="translate(110 114)">
            <path fill="#3A4E6F" fill-rule="nonzero" d="M64 128c35.346 0 64-28.654 64-64 0-35.346-28.654-64-64-64C28.654 0 0 28.654 0 64c0 35.346 28.654 64 64 64zm0-4C30.863 124 4 97.137 4 64S30.863 4 64 4s60 26.863 60 60-26.863 60-60 60z"/>
            <path fill="#E7EBF2" fill-rule="nonzero" d="M64 92.005c-24.59 0-45.192-17.069-50.608-40.004A52.144 52.144 0 0 0 12 63.998C12 92.718 35.281 116 64 116s52-23.282 52-52.002c0-4.13-.482-8.147-1.392-11.998C109.193 74.936 88.59 92.005 64 92.005z"/>
            <path fill="#3A4E6F" fill-rule="nonzero" d="M64 116c28.719 0 52-23.281 52-52S92.719 12 64 12 12 35.281 12 64s23.281 52 52 52zm0-4c-26.51 0-48-21.49-48-48s21.49-48 48-48 48 21.49 48 48-21.49 48-48 48zM168 232c35.346 0 64-28.654 64-64 0-35.346-28.654-64-64-64-35.346 0-64 28.654-64 64 0 35.346 28.654 64 64 64zm0-4c-33.137 0-60-26.863-60-60s26.863-60 60-60 60 26.863 60 60-26.863 60-60 60z"/>
            <path fill="#E7EBF2" fill-rule="nonzero" d="M168 196.005c-24.59 0-45.192-17.069-50.608-40.004A52.144 52.144 0 0 0 116 167.998c0 28.72 23.281 52.002 52 52.002s52-23.282 52-52.002c0-4.13-.482-8.147-1.392-11.998-5.415 22.936-26.018 40.005-50.608 40.005z"/>
            <path fill="#3A4E6F" fill-rule="nonzero" d="M168 220c28.719 0 52-23.281 52-52s-23.281-52-52-52-52 23.281-52 52 23.281 52 52 52zm0-4c-26.51 0-48-21.49-48-48s21.49-48 48-48 48 21.49 48 48-21.49 48-48 48zM41.005 151.661L41 151h4c0 19.882 16.118 36 36 36v4c-21.87 0-39.641-17.552-39.995-39.339zM190.995 80.339L191 81h-4c0-19.882-16.118-36-36-36v-4c21.87 0 39.641 17.552 39.995 39.339z"/>
            <circle cx="81" cy="189" r="2" fill="#3A4E6F"/>
            <circle cx="151" cy="43" r="2" fill="#3A4E6F"/>
            <path fill="#009CDE" fill-rule="nonzero" d="M64.991 43.952L63.027 36l-4.79 1.198 1.916 7.76c-1.245.335-2.538.67-3.784 1.006l-1.915-7.808-4.79 1.197 1.964 7.952c-1.006.288-2.06.575-3.018.815v-.048L42 49.749l1.293 5.173s3.497-.958 3.449-.862c1.916-.48 2.826.479 3.257 1.437l2.251 9.102c.128-.032.128-.016 0 .048l3.114 12.742c.032.415-.432 1.102-1.39 2.06.064.032-1.101.32-3.496.862l.479 6.036 6.227-1.58c1.15-.288 2.299-.575 3.4-.815L62.548 92l4.79-1.198-1.964-8c1.341-.287 2.587-.622 3.832-.91l1.964 7.952 4.79-1.197-1.964-8.048c7.903-2.491 13.028-5.988 11.83-13.845-.957-6.323-4.502-8.335-9.34-8.287 2.443-2.156 3.545-5.126 2.108-9.245-1.964-5.605-7.328-6.276-13.603-5.27zm11.16 24.192c1.485 6.036-8.86 7.904-12.07 8.718L61.447 66.18c3.257-.767 13.172-4.264 14.704 1.964zM70.26 53.677c1.341 5.46-7.28 6.994-9.963 7.664l-2.395-9.676c2.682-.719 10.92-3.737 12.358 2.012z"/>
            <path fill="#009CDE" d="M184 165.256L168.499 175 153 165.256 168.499 137 184 165.256zM153 171l15.499 9.172L184 171l-15.501 28L153 171zm15.5-34v38-38zm0 62v-19 19z"/>
            <path fill="#3A4E6F" fill-rule="nonzero" d="M181.414 72.586a2 2 0 0 0-2.828 2.828l8.293 8.293a3 3 0 0 0 4.242 0l8.293-8.293a2 2 0 0 0-2.828-2.828L189 80.172l-7.586-7.586zM50.586 159a2 2 0 0 0 2.828-2.828l-8.293-8.293a3 3 0 0 0-4.242 0l-8.293 8.293A2 2 0 0 0 35.414 159L43 151.414 50.586 159z"/>
        </g>
        <g transform="translate(0 73)">
            <circle cx="382" cy="118" r="3" fill="#009CDE"/>
            <circle cx="89" cy="229" r="3" fill="#009CDE"/>
            <path fill="#3A4E6F" d="M152 12a1 1 0 0 1 1 1v4a1 1 0 1 1-2 0v-4a1 1 0 0 1 1-1zm-4-4a1 1 0 1 1 0 2h-4a1 1 0 1 1 0-2h4zm12 0a1 1 0 1 1 0 2h-4a1 1 0 1 1 0-2h4zm-8-8a1 1 0 0 1 1 1v4a1 1 0 1 1-2 0V1a1 1 0 0 1 1-1zM330 295a1 1 0 0 1 1 1v4a1 1 0 1 1-2 0v-4a1 1 0 0 1 1-1zm-4-4a1 1 0 1 1 0 2h-4a1 1 0 1 1 0-2h4zm12 0a1 1 0 1 1 0 2h-4a1 1 0 1 1 0-2h4zm-8-8a1 1 0 0 1 1 1v4a1 1 0 1 1-2 0v-4a1 1 0 0 1 1-1z" opacity=".3"/>
            <rect width="24" height="2" x="267" y="31" fill="#3A4E6F" rx="1"/>
            <rect width="8" height="2" x="297" y="31" fill="#3A4E6F" rx="1"/>
            <rect width="24" height="2" x="137" y="288" fill="#3A4E6F" rx="1"/>
            <rect width="8" height="2" x="167" y="288" fill="#3A4E6F" rx="1"/>
            <circle cx="28" cy="119" r="28" fill="#FFF"/>
            <circle cx="388" cy="30" r="28" fill="#FFF"/>
            <circle cx="286" cy="342" r="28" fill="#FFF"/>
            <path fill="#3A4E6F" fill-opacity=".3" fill-rule="nonzero" d="M28 147c15.464 0 28-12.536 28-28S43.464 91 28 91 0 103.536 0 119s12.536 28 28 28zm0-2c-14.36 0-26-11.64-26-26s11.64-26 26-26 26 11.64 26 26-11.64 26-26 26zM388 58c15.464 0 28-12.536 28-28S403.464 2 388 2s-28 12.536-28 28 12.536 28 28 28zm0-2c-14.36 0-26-11.64-26-26s11.64-26 26-26 26 11.64 26 26-11.64 26-26 26zM286 370c15.464 0 28-12.536 28-28s-12.536-28-28-28-28 12.536-28 28 12.536 28 28 28zm0-2c-14.36 0-26-11.64-26-26s11.64-26 26-26 26 11.64 26 26-11.64 26-26 26z"/>
            <path fill="#3A4E6F" d="M397 29.988a1 1 0 0 1 1 1v2a4.821 4.821 0 0 1-5 5h-12.586l2.293 2.293a1 1 0 1 1-1.414 1.414l-4-4a1 1 0 0 1 0-1.414l4-4a1 1 0 0 1 1.414 1.414l-2.293 2.293H393a2.852 2.852 0 0 0 3-3v-2a1 1 0 0 1 1-1zm-2.293-11.707l4 4a1 1 0 0 1 0 1.414l-4 4a1 1 0 0 1-1.414-1.414l2.293-2.293H383a2.852 2.852 0 0 0-3 3v2a1 1 0 1 1-2 0v-2a4.821 4.821 0 0 1 5-5h12.586l-2.293-2.293a1 1 0 0 1 1.414-1.414z"/>
            <path fill="#3A4E6F" fill-rule="nonzero" d="M286 329c7.18 0 13 5.82 13 13 0 7.077-5.655 12.833-12.693 12.996L286 355a13.033 13.033 0 0 1-11.839-7.624 1 1 0 1 1 1.82-.828 11.027 11.027 0 0 0 7.175 6.069 15.088 15.088 0 0 1-4.343-9.617H274a1 1 0 0 1-1-1c.007-7.057 5.631-12.801 12.648-12.995l.31-.005H286zm10.955 14h-4.21a15.656 15.656 0 0 1-4.089 9.664 11.019 11.019 0 0 0 8.299-9.664zM285 343h-4.192a13.478 13.478 0 0 0 4.192 8.69V343zm5.744 0H287v8.525a13.857 13.857 0 0 0 3.744-8.525zM287 332.632V341h3.684a17.4 17.4 0 0 0-3.684-8.368zm1.5-1.332a19.2 19.2 0 0 1 4.2 9.7h4.253a11.015 11.015 0 0 0-8.453-9.7zm-3.5 1.174a17.057 17.057 0 0 0-4.126 8.526H285v-8.526zm-1.672-1.134a11.017 11.017 0 0 0-8.283 9.66h3.814a18.562 18.562 0 0 1 4.469-9.66zM28 106c7.18 0 13 5.82 13 13s-5.82 13-13 13-13-5.82-13-13 5.82-13 13-13zm0 2c-6.075 0-11 4.925-11 11s4.925 11 11 11 11-4.925 11-11-4.925-11-11-11zm0 3a8 8 0 1 1-8 8 1 1 0 1 1 2 0 6.006 6.006 0 0 0 6 6 6 6 0 0 0 1-11.914v5.5l1.707 1.707a1 1 0 0 1-1.414 1.414l-2-2A1 1 0 0 1 27 119v-7a1 1 0 0 1 1-1z"/>
        </g>
    </g>
</svg>
