<svg xmlns="http://www.w3.org/2000/svg" width="26.12" height="18.755" viewBox="0 0 26.12 18.755">
    <defs>
        <style>
            .cls-1{fill:#176fc1}
        </style>
    </defs>
    <g id="layer1" transform="translate(-183.614 -144.551)">
        <g id="g300" transform="translate(183.614 157.629)">
            <path id="path302" d="M-5.178-2.014h-.236L-5.649-.7h.229c.543 0 .785-.282.785-.812 0-.334-.183-.5-.543-.5M-5.479 0h-.294l-.287 1.648h-.915l.771-4.362H-5c.713 0 1.328.275 1.328 1.125C-3.668-.49-4.4 0-5.479 0" class="cls-1" transform="translate(6.976 2.714)"/>
        </g>
        <g id="g304" transform="translate(186.845 158.987)">
            <path id="path306" d="M-4.487-1.984c-.338 0-.67.563-.67 1.183 0 .319.076.507.232.507.269 0 .651-.613.795-1.414l.025-.138a.523.523 0 0 0-.382-.138m.839 2.315h-.845l.075-.438a.922.922 0 0 1-.839.5c-.4 0-.789-.314-.789-1.1 0-1.133.67-1.966 1.445-1.966a.817.817 0 0 1 .658.238l.031-.175h.783L-3.648.331z" class="cls-1" transform="translate(6.045 2.672)"/>
        </g>
        <g id="g308" transform="translate(189.642 159.05)">
            <path id="path310" d="M-5.638-7.948A2.218 2.218 0 0 1-7.5-6.453l-.1-.613a1.506 1.506 0 0 0 .983-.745l.087-.175-.512-2.721h.895l.225 1.6.738-1.6h.932z" class="cls-1" transform="translate(7.596 10.708)"/>
        </g>
        <g id="g312" transform="translate(192.971 158.987)">
            <path id="path314" d="M-11.839-8.651h-.845l.344-1.94c.024-.125.019-.25-.125-.25-.263 0-.733.626-.864 1.377l-.144.813h-.846l.345-1.94c.024-.125.019-.25-.126-.25-.263 0-.732.626-.864 1.377l-.143.813h-.844l.519-2.941h.844l-.119.688c.188-.307.482-.752.988-.752.457 0 .658.294.626.764.163-.27.47-.764 1.008-.764.52 0 .707.382.6.982z" class="cls-1" transform="translate(15.95 11.655)"/>
        </g>
        <g id="g316" transform="translate(198.015 158.987)">
            <path id="path318" d="M-4.4-1.73c-.263 0-.513.332-.613.808.557-.075.895-.206.895-.533A.252.252 0 0 0-4.4-1.73m-.653 1.29c.013.324.151.487.432.487a1.741 1.741 0 0 0 .87-.313l.232.55A2.008 2.008 0 0 1-4.74.736 1.074 1.074 0 0 1-5.923-.472a1.646 1.646 0 0 1 1.571-1.859c.751 0 1.076.326 1.076.826 0 .813-.663 1.008-1.777 1.064" class="cls-1" transform="translate(5.923 2.331)"/>
        </g>
        <g id="g320" transform="translate(200.987 158.987)">
            <path id="path322" d="M-7.136-8.651h-.845l.344-1.94c.025-.125.019-.25-.125-.25-.263 0-.733.626-.864 1.377l-.143.813h-.845l.519-2.941h.845l-.119.688c.188-.307.481-.752.988-.752s.707.382.6.982z" class="cls-1" transform="translate(9.614 11.655)"/>
        </g>
        <g id="g324" transform="translate(204.498 158.237)">
            <path id="path326" d="M-4.6-4.146h-.438l-.256 1.451c-.026.126.018.188.112.188a.539.539 0 0 0 .238-.062l.087.582a1.259 1.259 0 0 1-.7.22c-.438 0-.694-.276-.588-.87l.264-1.508h-.313l.112-.626h.313l.175-.638.814-.176-.145.814h.438z" class="cls-1" transform="translate(6.191 5.585)"/>
        </g>
        <g id="g328" transform="translate(206.287 158.987)">
            <path id="path330" d="M-6.234-2.758a1.409 1.409 0 0 0-.694-.263c-.176 0-.3.062-.3.206s.132.188.307.263l.162.069a.864.864 0 0 1 .632.851c0 .626-.332.983-1.083.983a1.886 1.886 0 0 1-1.19-.432l.331-.582a1.608 1.608 0 0 0 .789.318c.194 0 .274-.068.274-.212s-.137-.207-.312-.276l-.167-.067a.841.841 0 0 1-.62-.84c0-.675.52-.976 1.17-.976a1.581 1.581 0 0 1 1 .375z" class="cls-1" transform="translate(8.399 3.716)"/>
        </g>
        <g id="g332" transform="translate(193.716 153.273)">
            <path id="path334" d="M-9.72-2.165h-1.824l-.177 1.014h1.413l-.132.751h-1.412l-.327 1.844h-.921l.773-4.362h2.739z" class="cls-1" transform="translate(13.095 2.916)"/>
        </g>
        <g id="g336" transform="translate(196.687 154.631)">
            <path id="path338" d="M-4.487-1.982c-.338 0-.67.563-.67 1.183 0 .32.075.507.232.507.269 0 .651-.613.794-1.414l.026-.138a.522.522 0 0 0-.382-.138m.838 2.316h-.845l.076-.434a.922.922 0 0 1-.839.5c-.4 0-.788-.313-.788-1.1 0-1.133.67-1.966 1.445-1.966a.818.818 0 0 1 .658.238l.031-.175h.782z" class="cls-1" transform="translate(6.045 2.67)"/>
        </g>
        <g id="g340" transform="translate(199.778 154.631)">
            <path id="path342" d="M-6.238-2.757a1.414 1.414 0 0 0-.695-.263c-.175 0-.294.063-.294.207s.132.188.306.263l.163.069a.863.863 0 0 1 .632.851c0 .626-.332.983-1.083.983A1.891 1.891 0 0 1-8.4-1.08l.332-.582a1.6 1.6 0 0 0 .788.319c.193 0 .275-.069.275-.213s-.138-.207-.313-.276L-7.49-1.9a.84.84 0 0 1-.62-.839c0-.676.52-.976 1.17-.976a1.584 1.584 0 0 1 1 .375z" class="cls-1" transform="translate(8.404 3.715)"/>
        </g>
        <g id="g344" transform="translate(202.694 153.88)">
            <path id="path346" d="M-4.6-4.145h-.438l-.257 1.453c-.024.125.019.188.112.188a.54.54 0 0 0 .238-.063l.087.582a1.254 1.254 0 0 1-.7.219c-.438 0-.695-.275-.588-.87l.263-1.509h-.314l.113-.625h.313l.175-.638.813-.176-.144.814h.438z" class="cls-1" transform="translate(6.194 5.584)"/>
        </g>
        <g id="g348" transform="translate(204.534 154.632)">
            <path id="path350" d="M-4.4-1.729c-.263 0-.514.332-.613.807.557-.075.894-.206.894-.531a.252.252 0 0 0-.281-.276M-5.054-.44c.013.325.15.488.432.488a1.736 1.736 0 0 0 .87-.313l.231.55a2.009 2.009 0 0 1-1.22.451A1.074 1.074 0 0 1-5.924-.471 1.646 1.646 0 0 1-4.352-2.33c.75 0 1.075.325 1.075.826C-3.277-.69-3.94-.5-5.054-.44" class="cls-1" transform="translate(5.924 2.33)"/>
        </g>
        <g id="g352" transform="translate(207.506 154.631)">
            <path id="path354" d="M-5.947-2.631c-.426 0-.914.363-1.076 1.277l-.144.813h-.845l.52-2.941h.826l-.106.62a.944.944 0 0 1 .988-.682z" class="cls-1" transform="translate(8.012 3.545)"/>
        </g>
        <g id="g356" transform="translate(184.594 144.551)">
            <path id="path358" d="M-35.2-17.469v.015c0 .21-.167.421-.5.579l-11.013 5.334c-.662.321-.907.06-.546-.581l2.015-3.581a3.609 3.609 0 0 0 .459-1.767 3.606 3.606 0 0 0-.459-1.767l-2.015-3.581c-.361-.641-.116-.9.546-.581l11.013 5.334c.329.16.495.37.5.58z" class="cls-1" transform="translate(47.419 23.535)"/>
        </g>
    </g>
</svg>
