<svg xmlns="http://www.w3.org/2000/svg" width="34.782" height="9.505" viewBox="0 0 34.782 9.505">
    <defs>
        <style>
            .cls-1{fill:#10298e}
        </style>
    </defs>
    <g id="Group_7" transform="translate(-807.676 -585.5)">
        <path id="path5689" d="M7.728 3.259h-2.38a1.53 1.53 0 0 0-.137-.786q-.212-.3-1.172-.3a2.9 2.9 0 0 0-1.239.174q-.3.171-.3.745a.742.742 0 0 0 .268.683 1.111 1.111 0 0 0 .507.137l.48.034q1.543.1 1.927.144a2.942 2.942 0 0 1 1.769.649 1.72 1.72 0 0 1 .514 1.072 7.484 7.484 0 0 1 .048.895 4.739 4.739 0 0 1-.213 1.68 2.172 2.172 0 0 1-1.789 1.237 10.508 10.508 0 0 1-1.78.11 10.965 10.965 0 0 1-2.786-.239A1.817 1.817 0 0 1 .171 8.306 5.631 5.631 0 0 1 0 6.649h2.38v.2q0 .619.355.8a1.4 1.4 0 0 0 .595.129h.875A3.162 3.162 0 0 0 5.06 7.7a.7.7 0 0 0 .431-.416 1.588 1.588 0 0 0 .055-.458q0-.628-.458-.764A14.274 14.274 0 0 0 3.5 5.915q-1.141-.081-1.585-.157a2.114 2.114 0 0 1-1.558-.9A3.539 3.539 0 0 1 .012 3.1 4.54 4.54 0 0 1 .2 1.67 1.569 1.569 0 0 1 .8.851 3.016 3.016 0 0 1 2.331.346q.78-.068 1.731-.069A9.252 9.252 0 0 1 6.2.449a2.113 2.113 0 0 1 1.551 2.338c0 .1-.008.262-.023.472" class="cls-1" transform="translate(807.676 585.273)"/>
        <path id="path5693" d="M100.5 9.505V0h4.766a5.321 5.321 0 0 1 1.5.16 2.322 2.322 0 0 1 1.579 1.508 5.829 5.829 0 0 1 .209 1.8 6.7 6.7 0 0 1-.23 2.079 2.141 2.141 0 0 1-1.885 1.439q-.168.028-1.427.049l-.425.014h-1.525v2.456zm2.558-4.659h1.595a2.847 2.847 0 0 0 .924-.118.684.684 0 0 0 .3-.5 4.188 4.188 0 0 0 .048-.741 3.058 3.058 0 0 0-.1-.895.763.763 0 0 0-.661-.5c-.069-.009-.234-.014-.5-.014h-1.616z" class="cls-1" transform="translate(725.372 585.5)"/>
        <path id="path5697" d="M145.6 7.862h-3.42l-.46 1.643h-2.647L141.929 0h3.859l2.891 9.505h-2.591zm-.508-1.852l-1.2-4.12-1.163 4.12z" class="cls-1" transform="translate(693.78 585.5)"/>
        <path id="path5701" fill="#ffbe00" d="M52.4 1.719a3.363 3.363 0 0 1 2.616 1.247l.551-1.182a4.847 4.847 0 0 0-7.779 1.623h-1.079l-.635 1.361h1.383c-.01.126-.017.253-.017.382a4.6 4.6 0 0 0 .024.463h-.7l-.635 1.362h1.684a4.8 4.8 0 0 0 4.415 2.859 4.847 4.847 0 0 0 2.7-.811v-1.67a3.366 3.366 0 0 1-5.353-.379H53.1l.635-1.362h-4.678a3.412 3.412 0 0 1-.02-.844h5.092l.635-1.361h-5.287A3.371 3.371 0 0 1 52.4 1.719" transform="translate(769.943 585.118)"/>
        <path id="path5705" d="M52.106 1.576a3.319 3.319 0 0 1 2.584 1.233l.041.051.028-.059.551-1.182.012-.027-.021-.02a4.916 4.916 0 0 0-6.1-.5 4.742 4.742 0 0 0-1.748 2.135l.038-.025h-1.1l-.011.024-.635 1.361-.027.058h1.447l-.041-.044c-.012.141-.017.267-.017.385 0 .153.008.31.024.467l.041-.045h-.721l-.011.024-.635 1.361-.027.058h1.748l-.038-.025a4.83 4.83 0 0 0 4.454 2.884 4.884 4.884 0 0 0 2.719-.818l.018-.012v-1.8l-.071.081a3.325 3.325 0 0 1-5.288-.375l-.034.063h3.551l.011-.023.635-1.362.027-.058h-4.743l.041.035a3.423 3.423 0 0 1-.037-.5c0-.112.006-.226.017-.338l-.041.037h5.118l.011-.024.635-1.361.027-.058h-5.351l.035.061a3.346 3.346 0 0 1 2.884-1.668m-2.919 1.694h5.287l-.037-.058-.637 1.362.037-.024H48.71v.037c-.011.115-.017.232-.017.346a3.522 3.522 0 0 0 .037.508l.005.035h4.714l-.037-.058-.635 1.361.037-.024h-3.6l.042.063a3.407 3.407 0 0 0 5.418.384l-.074-.027v1.669l.018-.034a4.8 4.8 0 0 1-2.673.8 4.748 4.748 0 0 1-4.377-2.835l-.011-.024h-1.71l.037.058.635-1.362-.037.024h.74V5.42c-.015-.154-.024-.308-.024-.458 0-.115.006-.239.017-.378V4.54h-1.431l.037.058.635-1.361-.037.024h1.1l.01-.025a4.666 4.666 0 0 1 1.719-2.1 4.835 4.835 0 0 1 5.994.489l-.009-.047-.551 1.183.069-.009a3.408 3.408 0 0 0-5.6.446l-.036.061z" class="cls-1" transform="translate(770.233 585.302)"/>
    </g>
</svg>
