<?xml version="1.0" encoding="UTF-8"?>
<svg width="83px" height="83px" viewBox="0 0 83 83" version="1.1" xmlns="http://www.w3.org/2000/svg" xmlns:xlink="http://www.w3.org/1999/xlink">
    <!-- Generator: sketchtool 58 (101010) - https://sketch.com -->
    <title>F50082BB-65E2-40C6-9FB2-4074BC34552D</title>
    <desc>Created with sketchtool.</desc>
    <g id="Landing-Page" stroke="none" stroke-width="1" fill="none" fill-rule="evenodd">
        <g id="-g-Xcoins_Elements" transform="translate(-682.000000, -150.000000)" fill-rule="nonzero">
            <g id="litecoin" transform="translate(682.000000, 150.000000)">
                <path d="M83,41.4997479 C83,64.4196826 64.4200739,83 41.5002521,83 C18.5801782,83 0,64.4196826 0,41.4997479 C0,18.5800654 18.5801782,0 41.5002521,0 C64.4198218,0 83,18.5800654 83,41.4997479" id="Path" fill="#CCD4E1"></path>
                <polyline id="Path" fill="#FFFFFF" points="38.3891148 52.1666495 41.0704411 42.0702387 47.4185619 39.751003 48.997568 33.8173807 48.9436556 33.6701873 42.6948338 35.9530634 47.197145 19 34.428435 19 28.5404502 41.124139 23.6243927 42.9200483 22 49.0372236 26.9122961 47.2428187 23.4420937 60.2815921 57.4247009 60.2815921 59.6032628 52.1666495 38.3891148 52.1666495"></polyline>
            </g>
        </g>
    </g>
</svg>