<svg xmlns="http://www.w3.org/2000/svg" width="96" height="96" viewBox="0 0 96 96">
    <g fill="#3A4E6F" fill-rule="nonzero">
        <path d="M60.238 68.65l-.232.136A23.89 23.89 0 0 1 48 72c-4.47 0-8.655-1.222-12.238-3.35a5.967 5.967 0 0 0 .938-1.77A21.895 21.895 0 0 0 48 70c4.132 0 7.998-1.14 11.3-3.12.213.645.532 1.242.938 1.77zM27.35 35.762a5.967 5.967 0 0 0 1.77.938A21.895 21.895 0 0 0 26 48c0 4.132 1.14 7.998 3.12 11.3a5.973 5.973 0 0 0-1.77.938A23.89 23.89 0 0 1 24 48c0-4.47 1.222-8.655 3.35-12.238zm41.3 0A23.89 23.89 0 0 1 72 48c0 4.47-1.222 8.655-3.35 12.238a5.967 5.967 0 0 0-1.77-.938A21.895 21.895 0 0 0 70 48c0-4.132-1.14-7.998-3.12-11.3a5.973 5.973 0 0 0 1.77-.938zM48 24c4.47 0 8.655 1.222 12.238 3.35a5.967 5.967 0 0 0-.938 1.77A21.895 21.895 0 0 0 48 26c-4.132 0-7.998 1.14-11.3 3.12a5.973 5.973 0 0 0-.938-1.77A23.89 23.89 0 0 1 48 24z"/>
        <path d="M31 37a6 6 0 1 0 0-12 6 6 0 0 0 0 12zm0-2a4 4 0 1 1 0-8 4 4 0 0 1 0 8zM31 71a6 6 0 1 0 0-12 6 6 0 0 0 0 12zm0-2a4 4 0 1 1 0-8 4 4 0 0 1 0 8zM65 37a6 6 0 1 0 0-12 6 6 0 0 0 0 12zm0-2a4 4 0 1 1 0-8 4 4 0 0 1 0 8zM65 71a6 6 0 1 0 0-12 6 6 0 0 0 0 12zm0-2a4 4 0 1 1 0-8 4 4 0 0 1 0 8zM57 59a1 1 0 0 1-1-1v-8a3 3 0 0 0-3-3h-1.586l-2.707 2.707a1 1 0 0 1-1.414 0L44.586 47H43a3 3 0 0 0-3 3v8a1 1 0 0 1-2 0v-8a5.006 5.006 0 0 1 5-5h2a1 1 0 0 1 .707.293L48 47.586l2.293-2.293A1 1 0 0 1 51 45h2a5.006 5.006 0 0 1 5 5v8a1 1 0 0 1-1 1zM48 43a5 5 0 1 1 0-10 5 5 0 0 1 0 10zm0-8a3 3 0 1 0 0 6 3 3 0 0 0 0-6z"/>
        <path d="M43 63a1 1 0 0 1-1-1V52a1 1 0 0 1 2 0v10a1 1 0 0 1-1 1zM53 63a1 1 0 0 1-1-1V52a1 1 0 0 1 2 0v10a1 1 0 0 1-1 1z"/>
    </g>
</svg>
