<?xml version="1.0" encoding="UTF-8"?>
<svg width="83px" height="83px" viewBox="0 0 83 83" version="1.1" xmlns="http://www.w3.org/2000/svg" xmlns:xlink="http://www.w3.org/1999/xlink">
    <!-- Generator: sketchtool 58 (101010) - https://sketch.com -->
    <title>74A83829-A69A-48FF-BED2-A491FA23547F</title>
    <desc>Created with sketchtool.</desc>
    <g id="Landing-Page" stroke="none" stroke-width="1" fill="none" fill-rule="evenodd">
        <g id="-g-Xcoins_Elements" transform="translate(-283.000000, -150.000000)" fill-rule="nonzero">
            <g id="ripple" transform="translate(283.000000, 150.000000)">
                <path d="M81.7590983,51.5386608 C76.2155778,73.7748796 53.695188,87.3012858 31.4562544,81.7584421 C9.22899408,76.2155983 -4.30295473,53.6966608 1.24315982,31.4656296 C6.78408624,9.22941082 29.3031791,-4.30088605 51.5343305,1.2419577 C73.77067,6.78480145 87.3013218,29.3063327 81.7578013,51.5386608 L81.7590983,51.5386608 Z" id="Path" fill="#CCD4E1"></path>
                <path d="M46.1196432,22.103053 C43.4204108,23.6856551 41.8221514,26.5435638 41.8221514,29.5572727 C41.8221514,31.1398748 42.4589081,32.7347769 43.2560865,34.1576837 C43.8928432,35.4286854 44.2050595,37.6469933 41.982573,38.7580947 C40.3966378,39.705196 38.3218378,39.0737951 37.3728649,37.4870931 C36.4236865,36.2160914 35.3103892,34.9450898 33.8764541,33.9977835 C31.1772216,32.4151815 27.993027,32.4151815 25.2935892,33.9977835 C22.5941514,35.5803856 21,38.4454693 21,41.4599983 C21,44.4745272 22.5859351,47.3314109 25.292973,48.918318 C27.9922054,50.50092 31.1764,50.50092 33.8758378,48.918318 C35.309773,48.1229169 36.4228649,46.8601153 37.2120324,45.4290084 C37.8487892,44.317907 39.5990486,42.8870051 41.8217405,44.1580068 C43.4076757,45.105108 43.8842162,47.1758157 43.0952541,48.7584178 C42.2982811,50.1893196 41.8217405,51.7762267 41.8217405,53.3588287 C41.8217405,56.3766377 43.4076757,59.2302414 46.1192324,60.8130485 C48.8184649,62.3956505 52.0026595,62.3956505 54.7020973,60.8130485 C57.4015351,59.2304464 59,56.3725377 59,53.3588287 C59,50.3451198 57.4099568,47.4874161 54.7025081,45.900509 C53.268573,45.105108 51.6785297,44.7894076 49.9323784,44.7894076 C48.4984432,44.7894076 46.5961838,43.8423064 46.5961838,41.4599983 C46.5961838,39.5534958 48.0301189,38.1305889 49.9323784,38.1305889 C51.5183135,38.1305889 53.268573,37.8148885 54.7025081,37.0194875 C57.4017405,35.4368854 59,32.5789767 59,29.5654728 C59,26.5519688 57.4099568,23.6940601 54.7025081,22.1112531 C53.4289946,21.315852 51.8428541,21 50.4095351,21 C48.9838162,20.9919516 47.3855568,21.315852 46.1202595,22.103053" id="Path" fill="#FFFFFF"></path>
            </g>
        </g>
    </g>
</svg>