<svg xmlns="http://www.w3.org/2000/svg" width="96" height="96" viewBox="0 0 96 96">
    <g fill="none" fill-rule="nonzero">
        <path fill="#3A4E6F" d="M48 47c-.2 0-.397-.06-.563-.174l-22-15a1 1 0 0 1 1.126-1.652L48 44.79l21.437-14.616a1 1 0 0 1 1.126 1.652l-22 15A.994.994 0 0 1 48 47z"/>
        <path fill="#3A4E6F" d="M33 57a1 1 0 0 1-.707-1.707l12-12a1 1 0 0 1 1.414 1.414l-12 12A1 1 0 0 1 33 57zM63 57a1 1 0 0 1-.707-.293l-12-12a1 1 0 0 1 1.414-1.414l12 12A1 1 0 0 1 63 57z"/>
        <path fill="#E7EBF2" d="M72 33v28a4 4 0 0 1-4 4H52.414l-3.707 3.707a1 1 0 0 1-1.414 0L43.586 65H28a4 4 0 0 1-4-4V33c0-1.48.804-2.773 2-3.465V56c0 2.21 1.642 4 3.667 4h36.666C68.358 60 70 58.21 70 56l.001-26.464A3.998 3.998 0 0 1 72 33z"/>
        <path fill="#3A4E6F" d="M48 69a1 1 0 0 1-.707-.293L43.586 65H28a4 4 0 0 1-4-4V33a4 4 0 0 1 4-4h40a4 4 0 0 1 4 4v28a4 4 0 0 1-4 4H52.414l-3.707 3.707A1 1 0 0 1 48 69zM28 31a2 2 0 0 0-2 2v28a2 2 0 0 0 2 2h16a1 1 0 0 1 .707.293L48 66.586l3.293-3.293A1 1 0 0 1 52 63h16a2 2 0 0 0 2-2V33a2 2 0 0 0-2-2H28z"/>
    </g>
</svg>
