<svg xmlns="http://www.w3.org/2000/svg" width="96" height="96" viewBox="0 0 96 96">
    <g fill="none" fill-rule="nonzero">
        <g fill="#E7EBF2">
            <path d="M43.428 80.42L15.142 52.134c-5.855-5.855-6.111-15.189-.769-21.348-.132.095-.259.202-.378.321l-3.324 3.324c-6.123 6.123-6.123 16.05 0 22.173L38.957 84.89c6.123 6.123 16.05 6.123 22.174 0l3.323-3.324c.12-.119.227-.246.322-.378-6.16 5.343-15.493 5.087-21.348-.768z"/>
            <path d="M28.08 50.154l-.752.753a3.03 3.03 0 0 0-.848 1.647L9.575 35.648c.34-.42.706-.826 1.097-1.217l.842-.843L28.08 50.154zM44.655 68.235l.753-.753 16.566 16.566-.843.843c-.391.39-.798.756-1.217 1.097L43.008 69.082a3.036 3.036 0 0 0 1.647-.847zM63.632 43.254c-6.677 0-12.502-3.647-15.593-9.058a1.185 1.185 0 0 0-1.025-.608h-.117c-.673 0-1.215.568-1.169 1.24.637 9.333 8.41 16.706 17.904 16.706 9.495 0 17.268-7.373 17.905-16.706a1.168 1.168 0 0 0-1.169-1.24h-.117c-.427 0-.813.237-1.025.608-3.091 5.411-8.916 9.058-15.594 9.058z"/>
            <path d="M45.61 51.628a25.843 25.843 0 0 1-1.827-2.035c10.01 8.081 24.71 7.474 34.01-1.827 9.302-9.301 9.909-24.001 1.827-34.01a25.685 25.685 0 0 1 2.036 1.826c9.953 9.954 9.953 26.092 0 36.046a25.366 25.366 0 0 1-13.242 7.013l-4.83 10.189.842-9.756c-6.785.21-13.638-2.267-18.816-7.446z"/>
        </g>
        <path fill="#3A4E6F" d="M52.907 64.294a4.052 4.052 0 0 0-5.725 0l-3.234 3.234c-.387.386-.902.6-1.449.6a2.037 2.037 0 0 1-1.449-.6L28.034 54.512a2.051 2.051 0 0 1 0-2.898l3.234-3.234a4.053 4.053 0 0 0 0-5.725L19.014 30.4a4.022 4.022 0 0 0-2.863-1.186 4.022 4.022 0 0 0-2.863 1.186l-3.324 3.323A16.569 16.569 0 0 0 5.08 45.518c0 4.456 1.735 8.644 4.885 11.794L38.25 85.598a16.569 16.569 0 0 0 11.794 4.885 16.57 16.57 0 0 0 11.794-4.885l3.323-3.324a4.022 4.022 0 0 0 1.186-2.863 4.021 4.021 0 0 0-1.186-2.863L52.907 64.294zm10.84 16.566l-3.323 3.324a14.584 14.584 0 0 1-10.38 4.299c-3.92 0-7.607-1.527-10.38-4.3L11.38 55.899a14.584 14.584 0 0 1-4.3-10.38c0-3.92 1.527-7.607 4.3-10.38l3.323-3.323c.388-.387.902-.6 1.45-.6.546 0 1.06.213 1.448.6l12.254 12.254a2.052 2.052 0 0 1 0 2.898L26.621 50.2a4.022 4.022 0 0 0-1.186 2.863c0 1.082.421 2.099 1.186 2.863l13.015 13.016a4.022 4.022 0 0 0 2.863 1.186 4.021 4.021 0 0 0 2.863-1.186l3.234-3.234a2.051 2.051 0 0 1 2.897 0l12.255 12.255c.386.387.6.901.6 1.449 0 .546-.214 1.06-.6 1.448zm18.615-65.984c-5.002-5.003-11.654-7.758-18.73-7.758-7.075 0-13.726 2.755-18.73 7.758-10.327 10.327-10.327 27.132 0 37.46a26.355 26.355 0 0 0 13.154 7.166l4.625 9.757a1 1 0 0 0 1.807 0l4.615-9.735a26.345 26.345 0 0 0 13.26-7.189c10.327-10.327 10.327-27.132 0-37.46zM80.948 50.92a24.36 24.36 0 0 1-12.72 6.738 1 1 0 0 0-.717.554l-3.927 8.283-3.935-8.302a1 1 0 0 0-.713-.553 24.366 24.366 0 0 1-12.62-6.72c-9.547-9.548-9.547-25.083 0-34.631 4.774-4.774 11.045-7.161 17.316-7.161 6.27 0 12.542 2.387 17.316 7.16 9.548 9.549 9.548 25.084 0 34.632zm1.631-17.333c0 10.448-8.5 18.947-18.946 18.947-10.447 0-18.947-8.5-18.947-18.947a1 1 0 1 1 2 0c0 9.345 7.602 16.947 16.947 16.947 9.344 0 16.946-7.602 16.946-16.947a1 1 0 1 1 2 0z"/>
        <path fill="#009CDE" d="M63.746 34.666a3.133 3.133 0 0 1-3.133-3.133v-12.4a3.133 3.133 0 0 1 6.267 0v12.4a3.133 3.133 0 0 1-3.134 3.133z"/>
        <circle cx="63.772" cy="40.707" r="3.133" fill="#009CDE" transform="rotate(-76.645 63.772 40.707)"/>
    </g>
</svg>
