<svg xmlns="http://www.w3.org/2000/svg" width="96" height="96" viewBox="0 0 96 96">
    <g fill="none" fill-rule="nonzero">
        <path fill="#E7EBF2" d="M49.181 68.826c-.01.011-.021.022-.033.022-.164.076-.317.153-.481.219-.011 0-.022.01-.033.01a3.493 3.493 0 0 1-1.028.165 3.31 3.31 0 0 1-1.05-.175 6.742 6.742 0 0 1-.406-.186c-.032-.011-.054-.022-.087-.033-.011 0-.022-.01-.033-.022a37.275 37.275 0 0 1-20.92-33.503v6.355c0 14.3 8.162 27.278 20.92 33.503.01.011.022.022.033.022.033.01.055.022.087.033.132.065.274.13.405.186.328.109.679.174 1.05.174a3.49 3.49 0 0 0 1.029-.164c.01 0 .022-.01.033-.01.164-.066.317-.143.481-.22.012 0 .022-.01.033-.021a37.274 37.274 0 0 0 20.92-33.503v-6.355c0 14.3-8.162 27.277-20.92 33.503z"/>
        <path fill="#E7EBF2" d="M49.181 79.785c-.01.011-.021.022-.033.022-.164.077-.317.153-.481.219-.328.11-.69.175-1.061.175a3.3 3.3 0 0 1-1.05-.175 9.31 9.31 0 0 1-.493-.22c-.011 0-.022-.01-.033-.021-18.272-8.622-30.013-27.037-30.013-47.333v6.512c0 20.297 11.74 38.712 30.013 47.334.01.011.022.022.033.022.164.077.328.153.492.219.328.11.679.175 1.05.175.373 0 .734-.066 1.062-.175.164-.066.317-.142.481-.219.012 0 .022-.01.033-.022 18.273-8.622 30.002-27.036 30.002-47.334v-6.512c0 20.296-11.73 38.711-30.002 47.333z"/>
        <path fill="#009CDE" d="M48.063 33.544L46.947 29l-2.721.684 1.088 4.435c-.707.192-1.442.383-2.15.575l-1.088-4.462-2.722.684 1.116 4.544c-.571.164-1.17.329-1.714.466v-.028L35 36.856l.735 2.957s1.986-.548 1.96-.493c1.088-.274 1.605.274 1.85.821l1.279 5.201c.073-.018.073-.009 0 .028l1.769 7.281c.018.237-.245.63-.79 1.177.037.018-.625.183-1.986.493l.272 3.449 3.538-.903c.653-.165 1.306-.329 1.932-.466L46.675 61l2.722-.684-1.116-4.572c.762-.164 1.47-.356 2.177-.52l1.116 4.544 2.721-.684-1.115-4.599c4.49-1.423 7.402-3.422 6.722-7.911-.545-3.613-2.559-4.763-5.307-4.736 1.388-1.231 2.014-2.929 1.197-5.283-1.116-3.203-4.164-3.586-7.729-3.01zm6.341 13.824c.844 3.449-5.035 4.517-6.858 4.982l-1.497-6.104c1.85-.438 7.484-2.437 8.355 1.122zM51.057 39.1c.762 3.12-4.137 3.997-5.66 4.38l-1.362-5.53c1.524-.41 6.205-2.135 7.022 1.15z"/>
        <path fill="#3A4E6F" d="M77.95 18.26L49.202 9.265a5.427 5.427 0 0 0-3.208.001L17.25 18.26a3.215 3.215 0 0 0-2.233 3.044v17.66c0 20.504 11.968 39.412 30.5 48.197.06.038.119.067.176.09.164.075.328.15.492.216l.053.02c.451.15.91.226 1.368.226a4.333 4.333 0 0 0 1.43-.246c.144-.057.28-.121.42-.187l.115-.054-.001-.004a1.01 1.01 0 0 0 .08-.04c18.55-8.773 30.533-27.694 30.533-48.218v-17.66c0-1.38-.918-2.632-2.233-3.044zm.234 20.704c0 19.77-11.552 37.994-29.43 46.43a.981.981 0 0 0-.092.05l-.063.03c-.092.043-.181.086-.275.124-.47.151-.945.155-1.425 0a7.86 7.86 0 0 1-.35-.155 1.13 1.13 0 0 0-.092-.05c-17.884-8.439-29.44-26.663-29.44-46.429v-17.66c0-.515.342-.982.831-1.135l28.74-8.993a3.431 3.431 0 0 1 2.022 0l28.743 8.993c.489.153.83.62.83 1.136v17.66zm-3.412-16.93l-4.85 3.751a2.147 2.147 0 0 0-.299-.117l-21.017-6.57V13.4a1 1 0 1 0-2 0v5.695L25.58 25.667a2.1 2.1 0 0 0-.304.12l-4.854-3.752a1 1 0 0 0-1.224 1.582l4.926 3.808c-.01.081-.014.164-.014.247v14.006a38.248 38.248 0 0 0 5.828 20.31 38.22 38.22 0 0 0 15.615 14.073c.053.03.11.056.167.077l.014.007v.002l.02.008c.138.067.283.134.418.19a4.499 4.499 0 0 0 .435.13v4.525a1 1 0 1 0 2 0v-4.523a4.68 4.68 0 0 0 .325-.09l.04-.013c.023-.007.045-.015.067-.024.143-.057.279-.12.418-.187l.115-.054-.001-.003a38.223 38.223 0 0 0 15.704-14.118 38.247 38.247 0 0 0 5.828-20.31V27.672c0-.087-.005-.174-.016-.259l4.91-3.796a1 1 0 1 0-1.225-1.582zm-5.67 19.644c0 13.771-7.992 26.57-20.36 32.605a.906.906 0 0 0-.08.043l-.065.031c-.091.044-.181.087-.275.126a2.47 2.47 0 0 1-.71.115h-.017c-.231-.001-.458-.04-.69-.114a5.295 5.295 0 0 1-.307-.142.779.779 0 0 0-.1-.044l-.03-.015C34.101 68.248 26.11 55.45 26.11 41.678V27.672c0-.014.002-.028.007-.041l.023-.034a.088.088 0 0 1 .034-.02l21.068-6.586c.235-.071.482-.071.71-.001l21.076 6.588a.103.103 0 0 1 .02.008.925.925 0 0 0 .053.078v14.014z"/>
    </g>
</svg>
