<svg xmlns="http://www.w3.org/2000/svg" width="96" height="96" viewBox="0 0 96 96">
    <g fill="none" fill-rule="evenodd">
        <g fill="#E7EBF2" fill-rule="nonzero">
            <path d="M10.158 19.846h73.285v4.563H10.158zM79.343 75.966H14.257a4.1 4.1 0 0 1-4.1-4.1v8a4.1 4.1 0 0 0 4.1 4.1h65.086a4.1 4.1 0 0 0 4.1-4.1v-8a4.1 4.1 0 0 1-4.1 4.1z"/>
        </g>
        <g fill="#3A4E6F" fill-rule="nonzero">
            <path d="M79.342 11.034H14.258a5.106 5.106 0 0 0-5.1 5.1v63.732c0 2.812 2.288 5.1 5.1 5.1h65.085c2.812 0 5.1-2.288 5.1-5.1V16.134c0-2.812-2.288-5.1-5.1-5.1zm-65.084 2h65.085c1.709 0 3.1 1.39 3.1 3.1v7.275H11.158v-7.275c0-1.71 1.39-3.1 3.1-3.1zm65.084 69.932H14.258c-1.71 0-3.1-1.39-3.1-3.1V25.408h71.285v54.458c0 1.71-1.391 3.1-3.1 3.1z"/>
            <path d="M17.892 21.236a2.853 2.853 0 0 0 2.85-2.85 2.853 2.853 0 0 0-2.85-2.85 2.853 2.853 0 0 0-2.85 2.85 2.853 2.853 0 0 0 2.85 2.85zm0-3.7a.85.85 0 1 1-.001 1.701.85.85 0 0 1 .001-1.701zM68.26 21.236a2.853 2.853 0 0 0 2.85-2.85 2.853 2.853 0 0 0-2.85-2.85 2.853 2.853 0 0 0-2.85 2.85 2.853 2.853 0 0 0 2.85 2.85zm0-3.7a.85.85 0 1 1-.001 1.701.85.85 0 0 1 .001-1.701zM75.804 21.236a2.853 2.853 0 0 0 2.85-2.85 2.853 2.853 0 0 0-2.85-2.85 2.853 2.853 0 0 0-2.85 2.85 2.853 2.853 0 0 0 2.85 2.85zm0-3.7a.85.85 0 1 1-.001 1.701.85.85 0 0 1 .001-1.701z"/>
        </g>
        <rect width="43" height="9" x="25" y="40" stroke="#3A4E6F" stroke-width="2" rx="2.5"/>
        <rect width="43" height="9" x="25" y="55" stroke="#3A4E6F" stroke-width="2" rx="2.5"/>
        <path fill="#009CDE" fill-rule="nonzero" d="M77.898 69.756l-9.106-9.106 5.461-3.663c.774-.519.56-1.71-.346-1.927l-18.589-4.45a1.069 1.069 0 0 0-1.288 1.288l4.45 18.589c.217.905 1.408 1.12 1.927.346l3.663-5.46 9.105 9.105a1.069 1.069 0 0 0 1.512 0l3.21-3.211a1.068 1.068 0 0 0 0-1.511z"/>
    </g>
</svg>
