<svg xmlns="http://www.w3.org/2000/svg" width="96" height="96" viewBox="0 0 96 96">
    <g fill="none" fill-rule="nonzero">
        <path fill="#E7EBF2" d="M47.608 62.21c-13.528 0-24.862-9.39-27.842-22.007a28.685 28.685 0 0 0-.766 6.6c0 15.8 12.808 28.608 28.608 28.608s28.609-12.808 28.609-28.608c0-2.272-.265-4.482-.766-6.6C72.471 52.82 61.137 62.21 47.608 62.21z"/>
        <path fill="#009CDE" d="M91.55 86.981l-7.277-7.277 4.364-2.928a.854.854 0 0 0-.277-1.54L73.504 71.68a.854.854 0 0 0-1.029 1.03l3.557 14.855a.854.854 0 0 0 1.54.277l2.927-4.364 7.277 7.277a.854.854 0 0 0 1.208 0l2.566-2.567a.854.854 0 0 0 0-1.207z"/>
        <path fill="#3A4E6F" d="M47.608 17.194C31.282 17.194 18 30.477 18 46.803S31.282 76.41 47.608 76.41c3.075 0 6.105-.469 9.006-1.395a1 1 0 1 0-.608-1.905c-2.704.863-5.53 1.3-8.398 1.3C32.385 74.41 20 62.026 20 46.802c0-15.223 12.385-27.608 27.608-27.608 15.224 0 27.609 12.385 27.609 27.608a27.58 27.58 0 0 1-1.371 8.618 1 1 0 1 0 1.9.623 29.582 29.582 0 0 0 1.47-9.24c0-16.326-13.281-29.609-29.608-29.609z"/>
        <path fill="#3A4E6F" d="M72.687 58.815a1 1 0 0 0-1 1v5.721a1 1 0 1 0 2 0v-5.72a1 1 0 0 0-1-1zM81.915 62.638a1 1 0 0 0-1.414 0l-4.045 4.045a1 1 0 1 0 1.414 1.414l4.046-4.045a1 1 0 0 0 0-1.414zM67.504 75.634L63.46 79.68a1 1 0 1 0 1.414 1.414l4.045-4.046a1 1 0 1 0-1.414-1.414zM67.358 71.866a1 1 0 0 0-1-1h-5.721a1 1 0 1 0 0 2h5.72a1 1 0 0 0 1-1zM64.873 62.638a1 1 0 1 0-1.414 1.414l4.045 4.045a.997.997 0 0 0 1.415 0 1 1 0 0 0 0-1.414l-4.046-4.045z"/>
        <path fill="#FFF" stroke="#3A4E6F" stroke-width="2" d="M48.82 34.43c4.08-.472 6.795.578 7.917 3.798.634 1.828.537 3.446-.213 4.805 2.394.555 3.901 2.304 4.366 5.391.667 4.403-1.542 6.951-6.522 8.717l1.133 4.67-4.659 1.172-1.117-4.552-.096.024-.137.034 1.112 4.554-4.663 1.173-1.12-4.616a155.2 155.2 0 0 0-.947.235l-4.688 1.198-.434-5.495.843-.192a89.72 89.72 0 0 0 1.664-.393c.128-.137.226-.254.293-.349l-1.887-7.77.004-.003-1.071-4.353c-.122-.237-.261-.289-.66-.188l-1.948.49-.978.27-1.222-4.917 5.473-1.396-1.117-4.548 4.663-1.173 1.085 4.448a1363.96 1363.96 0 0 1 .216-.058l-1.092-4.449 4.66-1.172 1.141 4.645zm-1.565 14.534l1.025 4.179.407-.1a20.648 20.648 0 0 0 1.736-.513c2.274-.795 3.298-1.746 3.01-2.925-.272-1.11-1.337-1.488-3.324-1.248-.647.078-1.337.217-2.143.42-.13.033-.412.108-.711.187zm2.83-7.624c-.248-.997-1.06-1.336-2.612-1.17-.566.06-1.176.187-1.881.377l-.356.1.893 3.629.169-.042c.522-.133.98-.268 1.41-.422 1.839-.657 2.628-1.441 2.378-2.472zm0 0v-.002l.001.004v-.002z"/>
    </g>
</svg>
