<svg xmlns="http://www.w3.org/2000/svg" width="96" height="96" viewBox="0 0 96 96">
    <g fill="none" fill-rule="nonzero">
        <g fill="#E7EBF2">
            <path d="M15.733 60.067h63.733v3.595H15.733zM72.888 85.338H22.312a1.746 1.746 0 1 1 0-3.492h50.576a1.746 1.746 0 1 1 0 3.492zM81.32 29.486c-5.673 0-10.426-3.938-11.676-9.23a12.02 12.02 0 0 0-.321 2.769c0 6.626 5.371 11.997 11.997 11.997 6.626 0 11.998-5.371 11.998-11.997 0-.953-.111-1.88-.321-2.768-1.249 5.291-6.003 9.23-11.676 9.23z"/>
        </g>
        <path fill="#3A4E6F" d="M83.8 38.3v26.762a1 1 0 1 0 2 0V38.3a1 1 0 1 0-2 0zM10.4 66.062a1 1 0 0 0 1-1v-42.4c0-.551.449-1 1-1h52.7a1 1 0 1 0 0-2H12.4c-1.654 0-3 1.346-3 3v42.4a1 1 0 0 0 1 1z"/>
        <path fill="#3A4E6F" d="M66.1 25.662a1 1 0 0 0-1-1H15.733a1 1 0 0 0-1 1v38a1 1 0 0 0 1 1h63.733a1 1 0 0 0 1-1V38.3a1 1 0 1 0-2 0v24.362H16.733v-36H65.1a1 1 0 0 0 1-1zM87.933 67.662H7.266A4.271 4.271 0 0 0 3 71.929a4.272 4.272 0 0 0 4.266 4.267h80.667a4.272 4.272 0 0 0 4.267-4.267 4.272 4.272 0 0 0-4.267-4.267zm0 6.533H7.266A2.27 2.27 0 0 1 5 71.928a2.27 2.27 0 0 1 2.266-2.266h80.667a2.27 2.27 0 0 1 2.267 2.266 2.27 2.27 0 0 1-2.267 2.267z"/>
        <path fill="#009CDE" d="M39 47.264v6.928c0 .446.371.808.83.808h15.34c.459 0 .83-.362.83-.808v-6.928c0-2.565-1.888-4.709-4.382-5.182a4.935 4.935 0 0 0 1.052-3.048c0-2.776-2.32-5.034-5.17-5.034s-5.17 2.258-5.17 5.034c0 1.126.38 2.189 1.052 3.048C40.888 42.556 39 44.7 39 47.264z"/>
        <path fill="#3A4E6F" d="M81.32 36.022c7.168 0 12.998-5.83 12.998-12.997s-5.83-12.998-12.997-12.998-12.998 5.83-12.998 12.998c0 7.167 5.831 12.997 12.998 12.997zm0-23.995c6.065 0 10.998 4.933 10.998 10.998 0 6.064-4.933 10.997-10.997 10.997S70.323 29.09 70.323 23.025c0-6.065 4.934-10.998 10.998-10.998z"/>
        <path fill="#3A4E6F" d="M86.541 21.311l-5.349 6.156a1 1 0 0 1-.75.344h-.005c-.287 0-.56-.123-.75-.338l-3.027-3.431a1 1 0 0 1 1.5-1.323l2.272 2.575 4.6-5.294a.999.999 0 1 1 1.51 1.311z"/>
    </g>
</svg>
