<svg xmlns="http://www.w3.org/2000/svg" width="96" height="96" viewBox="0 0 96 96">
    <g fill="none" fill-rule="nonzero">
        <path fill="#E7EBF2" d="M15.034 85.734h10.149a.857.857 0 0 0 .857-.857V73.603H14.178v11.274c0 .473.383.857.856.857zM82.837 72.821c0 .673-.129 1.346-.386 1.984a5.332 5.332 0 0 1-2.798 2.901L53.886 89.101a4.374 4.374 0 0 1-2.764.24l-25.081-6.192v-9.543l11.283-4.954a4.03 4.03 0 0 1 2.416-.257l17.201 3.48s0 .034-.004.09c-.005.025-.005.047-.009.068a4.098 4.098 0 0 1-.15.805c-.33 1.234-1.358 3.154-4.512 2.679-1.671-.249-3.848-.591-5.164-.797a.762.762 0 0 0-.852.95 6.061 6.061 0 0 0 5.823 4.492 5.97 5.97 0 0 0 1.989-.343l27.76-9.83.308.18a5.298 5.298 0 0 1 .707 2.652z"/>
        <path fill="#3A4E6F" d="M82.998 69.672a6.309 6.309 0 0 0-2.82-2.595 6.356 6.356 0 0 0-4.583-.309l-17.7 5.55c.11-.614.111-1.225.007-1.82l-.005-.029-.013-.071a5.177 5.177 0 0 0-.6-1.605 4.968 4.968 0 0 0-.237-.377c-.733-1.058-1.878-1.837-3.201-2.166l-14.218-3.553a5.273 5.273 0 0 0-3.263.233l-9.324 3.78v-2.514a1.86 1.86 0 0 0-1.857-1.858H15.036a1.86 1.86 0 0 0-1.857 1.858v20.68a1.86 1.86 0 0 0 1.857 1.857h10.148a1.86 1.86 0 0 0 1.857-1.857v-.45l23.842 5.886a5.363 5.363 0 0 0 3.407-.296L80.06 78.62a6.328 6.328 0 0 0 3.318-3.44 6.28 6.28 0 0 0 .458-2.359 6.37 6.37 0 0 0-.838-3.149zm-3.75 7.12L53.482 88.186a3.364 3.364 0 0 1-2.12.184L26.28 82.178a.997.997 0 0 0-.856.183 1 1 0 0 0-.383.787v1.584h-9.862V64.338h9.862v3.816l-.001.04v11.305a1 1 0 1 0 2 0V68.868l10.077-4.085a3.286 3.286 0 0 1 2.001-.151l.028.008 14.215 3.552a3.579 3.579 0 0 1 1.84 1.103 3.04 3.04 0 0 1 .43.645l.017.035c.255.523.364 1.086.32 1.657 0 .01 0 .019-.002.028v.013a2.656 2.656 0 0 1-.027.21l-.145.786c-.435 1.507-1.569 2.133-3.379 1.859-1.67-.25-3.843-.59-5.155-.798a1 1 0 0 0-.312 1.976c1.316.208 3.496.548 5.17.8.397.06.767.088 1.112.088 1.992 0 3.142-.927 3.8-1.91l19.162-6.007a4.347 4.347 0 0 1 5.645 4.144c0 .553-.106 1.095-.314 1.611a4.338 4.338 0 0 1-2.275 2.36zm-59.14-10.429a2.852 2.852 0 0 0-2.848 2.848 2.851 2.851 0 0 0 2.849 2.848 2.851 2.851 0 0 0 2.848-2.848 2.851 2.851 0 0 0-2.848-2.848zm0 3.696a.849.849 0 0 1 0-1.696.849.849 0 0 1 0 1.696z"/>
        <path fill="#E7EBF2" d="M51.517 44.72c-11.593 0-21.307-8.047-23.86-18.86A24.586 24.586 0 0 0 27 31.516c0 13.54 10.976 24.517 24.516 24.517 13.54 0 24.517-10.977 24.517-24.517 0-1.946-.227-3.84-.657-5.656-2.553 10.813-12.266 18.86-23.86 18.86z"/>
        <path fill="#3A4E6F" d="M51.517 6C37.447 6 26 17.447 26 31.516c0 14.07 11.447 25.517 25.517 25.517s25.516-11.447 25.516-25.517S65.587 6 51.517 6zm0 49.033C38.55 55.033 28 44.483 28 31.516 28 18.55 38.55 8 51.517 8c12.967 0 23.516 10.55 23.516 23.516 0 12.967-10.55 23.517-23.516 23.517z"/>
        <path fill="#009CDE" d="M52.018 21.118L50.992 17l-2.504.62 1.001 4.019c-.65.174-1.327.347-1.978.521l-1.001-4.044-2.504.62 1.027 4.119c-.526.148-1.077.297-1.578.421v-.025L40 24.12l.676 2.679s1.828-.496 1.803-.447c1.001-.248 1.477.249 1.702.745l1.177 4.713c.067-.016.067-.008 0 .025l1.628 6.599c.016.215-.226.57-.727 1.066.034.017-.575.166-1.827.447l.25 3.126 3.255-.819c.6-.149 1.202-.298 1.778-.422L50.74 46l2.504-.62-1.027-4.143c.701-.149 1.352-.323 2.003-.471l1.027 4.118 2.504-.62-1.027-4.168c4.131-1.29 6.81-3.101 6.184-7.17-.5-3.274-2.353-4.316-4.882-4.291 1.277-1.117 1.853-2.655 1.102-4.788-1.027-2.903-3.831-3.25-7.11-2.729zm5.834 12.528c.776 3.126-4.632 4.093-6.31 4.515l-1.377-5.532c1.703-.397 6.886-2.208 7.687 1.017zm-3.08-7.492c.701 2.828-3.806 3.622-5.208 3.97l-1.252-5.012c1.403-.372 5.71-1.935 6.46 1.042z"/>
    </g>
</svg>
